<svg xmlns="http://www.w3.org/2000/svg" xmlns:xlink="http://www.w3.org/1999/xlink" viewBox="0 0 1096.18 433.502">
  <defs>
    <clipPath id="clip-path" transform="translate(-748.829 -510.238)">
      <rect x="535.048" width="1920" height="1080" fill="none"/>
    </clipPath>
    <clipPath id="clip-path-2" transform="translate(-748.829 -510.238)">
      <path d="M873.742,624.882c-25.82,2.09-46.18,14.225-66.809,13.3l-.2,57.842,184.244-95.853L956.461,584.1Z" fill="none"/>
    </clipPath>
    <linearGradient id="linear-gradient" x1="517.56" y1="1229.39" x2="518.56" y2="1229.39" gradientTransform="matrix(250.721, 0, 0, -250.721, -128949.809, 308874.378)" gradientUnits="userSpaceOnUse">
      <stop offset="0" stop-color="#04bcf8"/>
      <stop offset="1" stop-color="#093073"/>
    </linearGradient>
    <clipPath id="clip-path-3" transform="translate(-748.829 -510.238)">
      <polygon points="990.974 600.169 1018.078 586.067 962.932 556.809 990.974 600.169" fill="none"/>
    </clipPath>
    <linearGradient id="linear-gradient-2" x1="517.56" y1="1229.434" x2="518.56" y2="1229.434" gradientTransform="matrix(250.721, 0, 0, -250.721, -128967.818, 308823.777)" xlink:href="#linear-gradient"/>
    <clipPath id="clip-path-4" transform="translate(-748.829 -510.238)">
      <path d="M806.933,638.18c20.629.927,40.989-11.208,66.809-13.3L956.461,584.1l34.513,16.074-28.042-43.36Z" fill="none"/>
    </clipPath>
    <linearGradient id="linear-gradient-3" x1="515.85" y1="1229.124" x2="516.85" y2="1229.124" gradientTransform="matrix(141.092, 0, 0, -141.092, -71942.666, 174017.516)" gradientUnits="userSpaceOnUse">
      <stop offset="0" stop-color="#24e8ff"/>
      <stop offset="1" stop-color="#085394"/>
    </linearGradient>
    <clipPath id="clip-path-5" transform="translate(-748.829 -510.238)">
      <polygon points="831.641 683.063 831.641 740.332 858.548 754.606 858.548 669.064 831.641 683.063" fill="none"/>
    </clipPath>
    <linearGradient id="linear-gradient-4" x1="517.974" y1="1236.578" x2="518.974" y2="1236.578" gradientTransform="matrix(0, -67.897, -67.897, 0, 84056.688, 35405.78)" gradientUnits="userSpaceOnUse">
      <stop offset="0" stop-color="#0a285c"/>
      <stop offset="0.5" stop-color="#04498a"/>
      <stop offset="1" stop-color="#05336f"/>
    </linearGradient>
    <clipPath id="clip-path-6" transform="translate(-748.829 -510.238)">
      <path d="M819.724,689.262c-6.565,8.244-11.071,14.373-12.994,19.618v10.262c2.67,6.122,10.556,12.225,24.911,21.19V683.063Z" fill="none"/>
    </clipPath>
    <linearGradient id="linear-gradient-5" x1="516.813" y1="1240.212" x2="517.813" y2="1240.212" gradientTransform="matrix(45.732, 0, 0, -45.732, -22837.534, 57428.986)" gradientUnits="userSpaceOnUse">
      <stop offset="0" stop-color="#04599a"/>
      <stop offset="0.5" stop-color="#0168ad"/>
      <stop offset="1" stop-color="#015092"/>
    </linearGradient>
    <clipPath id="clip-path-7" transform="translate(-748.829 -510.238)">
      <path d="M806.73,696.022V708.88c1.923-5.245,6.429-11.374,12.994-19.618Z" fill="none"/>
    </clipPath>
    <linearGradient id="linear-gradient-6" x1="517.936" y1="1227.408" x2="518.936" y2="1227.408" gradientTransform="matrix(0, 235.157, 235.157, 0, -287820.995, -121090.827)" gradientUnits="userSpaceOnUse">
      <stop offset="0" stop-color="#0277bd"/>
      <stop offset="1" stop-color="#021033"/>
    </linearGradient>
    <clipPath id="clip-path-8" transform="translate(-748.829 -510.238)">
      <path d="M806.73,783.865l29.629-7.2,152.269,75.94L1016.8,837.8,858.548,754.606l-26.907-14.274c-14.355-8.965-22.241-15.068-24.911-21.19Z" fill="none"/>
    </clipPath>
    <linearGradient id="linear-gradient-7" x1="517.936" y1="1227.5" x2="518.936" y2="1227.5" gradientTransform="matrix(0, 235.157, 235.157, 0, -287744.12, -121132.637)" xlink:href="#linear-gradient-6"/>
    <clipPath id="clip-path-9" transform="translate(-748.829 -510.238)">
      <polygon points="806.73 783.865 964.483 865.303 988.628 852.608 836.359 776.668 806.73 783.865" fill="none"/>
    </clipPath>
    <linearGradient id="linear-gradient-8" x1="517.17" y1="1226.873" x2="518.17" y2="1226.873" gradientTransform="matrix(0, 167.094, 167.094, 0, -204105.612, -85680.586)" gradientUnits="userSpaceOnUse">
      <stop offset="0" stop-color="#014c86"/>
      <stop offset="1" stop-color="#031c45"/>
    </linearGradient>
    <clipPath id="clip-path-10" transform="translate(-748.829 -510.238)">
      <polygon points="906.472 688.219 906.472 738.982 987.249 776.668 1005 767.323 931.652 728.651 931.652 701.686 1032.967 648.443 1009.427 636.84 906.472 688.219" fill="none"/>
    </clipPath>
    <linearGradient id="linear-gradient-9" x1="518.132" y1="1232.394" x2="519.132" y2="1232.394" gradientTransform="matrix(139.148, 0, 0, -139.148, -71190.462, 172192.491)" gradientUnits="userSpaceOnUse">
      <stop offset="0" stop-color="#778091"/>
      <stop offset="1" stop-color="#343d4e"/>
    </linearGradient>
    <clipPath id="clip-path-11" transform="translate(-748.829 -510.238)">
      <polygon points="886.079 679.573 886.079 743.213 968.326 786.629 987.249 776.668 906.472 738.982 906.472 688.219 1009.427 636.84 988.281 626.416 886.079 679.573" fill="none"/>
    </clipPath>
    <linearGradient id="linear-gradient-10" x1="515.709" y1="1228.619" x2="516.709" y2="1228.619" gradientTransform="matrix(135.669, 0, 0, -135.669, -69083.661, 167391.764)" gradientUnits="userSpaceOnUse">
      <stop offset="0" stop-color="#434e60"/>
      <stop offset="1" stop-color="#2b3242"/>
    </linearGradient>
    <clipPath id="clip-path-12" transform="translate(-748.829 -510.238)">
      <path d="M990.337,625.333c10.788-4.481,43.108-4.063,61.483,5.448l33.614,17.163,26.622-14.484L1043.023,597.6Z" fill="none"/>
    </clipPath>
    <linearGradient id="linear-gradient-11" x1="515.342" y1="1228.012" x2="516.342" y2="1228.012" gradientTransform="matrix(121.72, 0, 0, -121.72, -62486.013, 149586.284)" gradientUnits="userSpaceOnUse">
      <stop offset="0" stop-color="#4c5566"/>
      <stop offset="1" stop-color="#343d4e"/>
    </linearGradient>
    <clipPath id="clip-path-13" transform="translate(-748.829 -510.238)">
      <rect y="260.087" width="1920" height="1080" fill="none"/>
    </clipPath>
    <clipPath id="clip-path-14" transform="translate(-748.829 -510.238)">
      <polygon points="966.374 811.574 993.412 825.787 993.697 825.653 1091.556 777.266 1061.225 761.55 966.374 811.574" fill="none"/>
    </clipPath>
    <linearGradient id="linear-gradient-12" x1="514.566" y1="1230.404" x2="515.566" y2="1230.404" gradientTransform="matrix(101.109, 0, 0, -101.109, -51047.309, 125198.411)" gradientUnits="userSpaceOnUse">
      <stop offset="0" stop-color="#566175"/>
      <stop offset="0.5" stop-color="#7e899b"/>
      <stop offset="1" stop-color="#687389"/>
    </linearGradient>
  </defs>
  <title>Asset 5</title>
  <g id="Layer_2" data-name="Layer 2">
    <g id="Layer_1-2" data-name="Layer 1">
      <g clip-path="url(#clip-path)">
        <path d="M1179.01,746.558a36.426,36.426,0,0,1-13.432-2.43,31.921,31.921,0,0,1-17.924-17.282,34.756,34.756,0,0,1,0-26.223,31.921,31.921,0,0,1,17.924-17.282,38.689,38.689,0,0,1,27.23.092,28.092,28.092,0,0,1,10.682,7.472l-5.959,5.776a23.841,23.841,0,0,0-8.252-5.73,27.168,27.168,0,0,0-22.738,1.33,23.98,23.98,0,0,0-8.986,8.756,26.08,26.08,0,0,0,0,25.4,23.98,23.98,0,0,0,8.986,8.756,27.168,27.168,0,0,0,22.738,1.33,23.308,23.308,0,0,0,8.252-5.822l5.959,5.776a28.511,28.511,0,0,1-10.682,7.518,36.123,36.123,0,0,1-13.8,2.567" transform="translate(-748.829 -510.238)" fill="#4e4f51"/>
        <rect x="466.855" y="171.407" width="9.168" height="64.18" fill="#4e4f51"/>
        <path d="M1244.107,745.824v-64.18h25.03q12.468,0,19.62,5.959t7.152,16.412q0,10.452-7.152,16.413t-19.62,5.959h-15.862v19.437Zm9.168-27.414h15.586q8.8,0,13.341-3.759t4.538-10.636q0-6.876-4.538-10.635t-13.341-3.759h-15.586Z" transform="translate(-748.829 -510.238)" fill="#4e4f51"/>
        <path d="M1309.386,745.824V681.645h25.03q12.468,0,19.62,5.959t7.152,16.412a21.411,21.411,0,0,1-3.668,12.7,20.82,20.82,0,0,1-10.452,7.564l15.22,21.546h-9.994l-13.844-19.712q-1.926.185-4.034.183h-15.862v19.529Zm9.168-27.322h15.586q8.8,0,13.341-3.8t4.538-10.681q0-6.876-4.538-10.636t-13.341-3.759h-15.586Z" transform="translate(-748.829 -510.238)" fill="#4e4f51"/>
        <rect x="627.211" y="171.407" width="9.168" height="64.18" fill="#4e4f51"/>
        <path d="M1394.744,745.824l29.064-64.18h9.077l29.156,64.18h-9.627l-7.06-16.045h-34.107l-7.06,16.045Zm19.712-23.38h27.689L1428.3,691Z" transform="translate(-748.829 -510.238)" fill="#4e4f51"/>
        <polygon points="722.747 235.586 722.747 171.406 730.265 171.406 768.773 219.266 768.773 171.406 777.941 171.406 777.941 235.586 770.423 235.586 731.915 187.727 731.915 235.586 722.747 235.586" fill="#4e4f51"/>
        <path d="M1599.384,746.558a36.429,36.429,0,0,1-13.432-2.43,31.921,31.921,0,0,1-17.924-17.282,34.768,34.768,0,0,1,0-26.223,31.921,31.921,0,0,1,17.924-17.282,38.692,38.692,0,0,1,27.231.092,28.08,28.08,0,0,1,10.681,7.472l-5.959,5.776a23.837,23.837,0,0,0-8.251-5.73,27.17,27.17,0,0,0-22.739,1.33,23.97,23.97,0,0,0-8.985,8.756,26.073,26.073,0,0,0,0,25.4,23.97,23.97,0,0,0,8.985,8.756,27.17,27.17,0,0,0,22.739,1.33,23.3,23.3,0,0,0,8.251-5.822l5.959,5.776a28.5,28.5,0,0,1-10.681,7.518,36.128,36.128,0,0,1-13.8,2.567" transform="translate(-748.829 -510.238)" fill="#084270"/>
        <rect x="887.23" y="171.407" width="9.169" height="64.18" fill="#084270"/>
        <path d="M1693.178,746.558a36.429,36.429,0,0,1-13.432-2.43,31.921,31.921,0,0,1-17.924-17.282,34.768,34.768,0,0,1,0-26.223,31.921,31.921,0,0,1,17.924-17.282,38.692,38.692,0,0,1,27.231.092,28.08,28.08,0,0,1,10.681,7.472l-5.959,5.776a23.837,23.837,0,0,0-8.251-5.73,27.17,27.17,0,0,0-22.739,1.33,23.97,23.97,0,0,0-8.985,8.756,26.073,26.073,0,0,0,0,25.4,23.97,23.97,0,0,0,8.985,8.756,27.17,27.17,0,0,0,22.739,1.33,23.3,23.3,0,0,0,8.251-5.822l5.959,5.776a28.5,28.5,0,0,1-10.681,7.518,36.128,36.128,0,0,1-13.8,2.567" transform="translate(-748.829 -510.238)" fill="#084270"/>
        <polygon points="981.023 235.586 981.023 171.406 1026.316 171.406 1026.316 179.383 990.192 179.383 990.192 199.095 1022.374 199.095 1022.374 206.889 990.192 206.889 990.192 227.609 1027.599 227.609 1027.599 235.586 981.023 235.586" fill="#084270"/>
        <path d="M1817.87,746.558q-12.654,0-19.9-7.243t-7.243-21.18v-36.49h9.168v36.124q0,10.637,4.722,15.632t13.341,5q8.707,0,13.431-5t4.722-15.632V681.645h8.894v36.49q0,13.938-7.2,21.18t-19.941,7.243" transform="translate(-748.829 -510.238)" fill="#084270"/>
      </g>
      <g clip-path="url(#clip-path-2)">
        <rect x="791.415" y="548.722" width="214.873" height="182.672" transform="translate(-940.423 -39.113) rotate(-26.648)" fill="url(#linear-gradient)"/>
      </g>
      <g clip-path="url(#clip-path-3)">
        <rect x="956.137" y="546.745" width="68.736" height="63.487" transform="translate(-903.073 -4.546) rotate(-26.648)" fill="url(#linear-gradient-2)"/>
      </g>
      <g clip-path="url(#clip-path-4)">
        <rect x="799.432" y="534.459" width="199.044" height="126.998" transform="translate(-872.675 -258.044) rotate(-14.953)" fill="url(#linear-gradient-3)"/>
      </g>
      <g clip-path="url(#clip-path-5)">
        <rect x="82.812" y="158.826" width="26.907" height="85.542" fill="url(#linear-gradient-4)"/>
      </g>
      <g clip-path="url(#clip-path-6)">
        <rect x="790.162" y="698.32" width="58.047" height="26.755" transform="translate(-667.535 997.132) rotate(-88.141)" fill="url(#linear-gradient-5)"/>
      </g>
      <g clip-path="url(#clip-path-7)">
        <rect x="801.482" y="688.532" width="23.489" height="21.079" transform="translate(-948.205 541.925) rotate(-59.907)" fill="url(#linear-gradient-6)"/>
      </g>
      <g clip-path="url(#clip-path-8)">
        <rect x="801.361" y="661.539" width="220.806" height="248.673" transform="translate(-974.18 670.459) rotate(-59.907)" fill="url(#linear-gradient-7)"/>
      </g>
      <g clip-path="url(#clip-path-9)">
        <rect x="816.086" y="719.863" width="163.187" height="202.244" transform="translate(-995.862 722.426) rotate(-62.225)" fill="url(#linear-gradient-8)"/>
      </g>
      <g clip-path="url(#clip-path-10)">
        <rect x="889.259" y="631.604" width="160.92" height="150.301" transform="translate(-653.935 1017.818) rotate(-79.278)" fill="url(#linear-gradient-9)"/>
      </g>
      <g clip-path="url(#clip-path-11)">
        <rect x="876.556" y="619.34" width="142.394" height="174.365" transform="translate(-829.657 -386.323) rotate(-7.175)" fill="url(#linear-gradient-10)"/>
      </g>
      <g clip-path="url(#clip-path-12)">
        <rect x="241.508" y="87.357" width="121.719" height="50.349" fill="url(#linear-gradient-11)"/>
      </g>
      <g clip-path="url(#clip-path-13)">
        <path d="M1085.434,647.944l-33.614-17.163c-18.375-9.511-50.7-9.929-61.484-5.447l-2.056,1.082,71.731,35.359Z" transform="translate(-748.829 -510.238)" fill="#1c2836"/>
      </g>
      <g clip-path="url(#clip-path-14)">
        <rect x="958.629" y="735.686" width="140.672" height="115.965" transform="translate(-1002.268 73.387) rotate(-28.342)" fill="url(#linear-gradient-12)"/>
      </g>
      <polygon points="364.44 278.278 342.726 267.027 244.867 315.415 244.583 315.549 267.429 327.559 364.44 278.278" fill="#41495c"/>
    </g>
  </g>
</svg>
